<?xml version="1.0" encoding="utf-8"?>
<!-- Generator: Adobe Illustrator 21.1.0, SVG Export Plug-In . SVG Version: 6.00 Build 0)  -->
<svg version="1.1" id="Layer_1" xmlns="http://www.w3.org/2000/svg" xmlns:xlink="http://www.w3.org/1999/xlink" x="0px" y="0px"
	 viewBox="0 0 183.8 183.8" style="enable-background:new 0 0 183.8 183.8;" xml:space="preserve">
<style type="text/css">
	.st0{fill:#76B9BE;}
</style>
<g>
	<path class="st0" d="M6.7,167.9l0.5-22.8l15.6,6.6L6.7,167.9z M55.4,28l6.4,2.7l-47,110.5l-6.4-2.7L55.4,28z M61.9,12.7
		c1-2.5,3-4.4,5.5-5.4c2.5-1,5.2-1,7.7,0.1c2.5,1.1,4.4,3,5.4,5.5c1,2.5,1,5.2-0.1,7.7l-3.9,9.2L58,21.9L61.9,12.7z M20.8,143.7
		l47-110.4l6,2.6l-47,110.4L20.8,143.7z M31,152.8c0.2-0.3,0.5-0.6,0.6-0.9L81.2,35.4l5.2-12.3c1.7-4.1,1.8-8.6,0.1-12.7
		s-4.8-7.3-8.9-9.1C73.6-0.4,69-0.4,64.9,1.2c-4.1,1.7-7.3,4.8-9.1,8.9l-5.2,12.2c0,0,0,0,0,0v0L1.1,138.9c-0.1,0.3-0.2,0.7-0.2,1
		c0,0.1-0.1,0.1-0.1,0.2L0,175.9c0,1.3,0.8,2.6,2,3.1c0.4,0.2,0.9,0.3,1.3,0.3c0.9,0,1.7-0.3,2.3-1l25.3-25.4
		C31,152.9,31,152.8,31,152.8"/>
	<path class="st0" d="M180.6,177.3H9.9c-1.8,0-3.3,1.5-3.3,3.3c0,1.8,1.5,3.3,3.3,3.3h170.7c1.8,0,3.3-1.5,3.3-3.3
		C183.8,178.8,182.4,177.3,180.6,177.3"/>
</g>
</svg>
