<?xml version="1.0" encoding="utf-8"?>
<!-- Generator: Adobe Illustrator 21.1.0, SVG Export Plug-In . SVG Version: 6.00 Build 0)  -->
<svg version="1.1" id="Layer_1" xmlns="http://www.w3.org/2000/svg" xmlns:xlink="http://www.w3.org/1999/xlink" x="0px" y="0px"
	 viewBox="0 0 203.3 56.3" style="enable-background:new 0 0 203.3 56.3;" xml:space="preserve">
<style type="text/css">
	.st0{fill:#76B9BE;}
</style>
<g>
	<path class="st0" d="M28.1,36c2.4,0,4.9,0,7.3,0c0.4,0,0.6-0.1,0.6-0.5c0-4.9,0-9.7,0-14.6c0-0.4-0.1-0.5-0.5-0.5
		c-4.9,0-9.7,0-14.6,0c-0.4,0-0.5,0.1-0.5,0.6c0,4.9,0,9.7,0,14.6c0,0.4,0.1,0.5,0.5,0.5C23.3,35.9,25.7,36,28.1,36 M10.1,18
		c2.4,0,4.9,0,7.3,0c0.5,0,0.6-0.1,0.6-0.6c0-4.8,0-9.7,0-14.5c0-0.5-0.2-0.6-0.6-0.6c-4.8,0-9.7,0-14.5,0c-0.4,0-0.6,0.1-0.6,0.6
		c0,4.9,0,9.7,0,14.6c0,0.4,0.1,0.5,0.6,0.5C5.3,18,7.7,18,10.1,18 M28.1,53.9c2.4,0,4.9,0,7.3,0c0.4,0,0.6-0.1,0.6-0.6
		c0-4.8,0-9.7,0-14.5c0-0.4-0.1-0.6-0.6-0.6c-4.9,0-9.7,0-14.6,0c-0.4,0-0.5,0.1-0.5,0.5c0,4.9,0,9.7,0,14.6c0,0.4,0.1,0.5,0.5,0.5
		C23.3,53.9,25.7,53.9,28.1,53.9 M2.3,46.1c0,2.4,0,4.8,0,7.2c0,0.5,0.1,0.6,0.6,0.6c4.8,0,9.6,0,14.4,0c0.4,0,0.6-0.1,0.6-0.6
		c0-4.8,0-9.7,0-14.5c0-0.5-0.1-0.6-0.6-0.6c-4.8,0-9.7,0-14.5,0c-0.5,0-0.6,0.2-0.6,0.6C2.3,41.3,2.3,43.7,2.3,46.1 M10.2,20.3
		c-2.4,0-4.8,0-7.2,0c-0.5,0-0.6,0.1-0.6,0.6c0,4.8,0,9.6,0,14.4c0,0.5,0.1,0.6,0.6,0.6c4.8,0,9.7,0,14.5,0c0.4,0,0.6-0.1,0.6-0.6
		c0-4.8,0-9.7,0-14.5c0-0.5-0.2-0.6-0.6-0.6C15,20.3,12.6,20.3,10.2,20.3 M46.1,18c2.4,0,4.9,0,7.3,0c0.4,0,0.6-0.1,0.6-0.5
		c0-4.9,0-9.7,0-14.6c0-0.4-0.1-0.5-0.6-0.5c-4.9,0-9.7,0-14.6,0c-0.5,0-0.6,0.2-0.6,0.6c0,4.8,0,9.7,0,14.5c0,0.5,0.1,0.6,0.6,0.6
		C41.3,18,43.7,18,46.1,18 M28.1,18c2.4,0,4.9,0,7.3,0c0.4,0,0.5-0.1,0.5-0.5c0-4.9,0-9.7,0-14.6c0-0.4-0.1-0.6-0.5-0.6
		c-4.9,0-9.7,0-14.6,0c-0.4,0-0.6,0.1-0.6,0.6c0,4.8,0,9.7,0,14.5c0,0.4,0.1,0.6,0.6,0.6C23.3,18,25.7,18,28.1,18 M0.8,0h54.6
		c0.6,0.3,0.8,0.9,0.8,1.6c0,2.8,0,5.6,0,8.5c0,4.4,0,13.9,0,18.3c0,0.8-0.4,1.3-1.2,1.3c-0.7,0-1.1-0.5-1.2-1.3c0-0.8,0-6.8,0-7.6
		c0-0.4-0.1-0.5-0.5-0.5c-4.9,0-9.8,0-14.7,0c-0.4,0-0.5,0.1-0.5,0.5c0,4.9,0,9.8,0,14.7c0,0.4,0.1,0.4,0.5,0.4c0.7,0,1.4,0,2.2,0
		c0.2,0,0.4,0,0.6,0c0.7,0,1.2,0.5,1.2,1.1c0,0.6-0.5,1.2-1.2,1.2c-0.9,0-1.9,0-2.8,0c-0.4,0-0.5,0.1-0.5,0.5c0,4.9,0,9.8,0,14.7
		c0,0.4,0.1,0.5,0.5,0.5c0.9,0,1.9,0,2.8,0c0.7,0,1.2,0.5,1.2,1.1c0,0.6-0.4,1.2-1.2,1.2c-0.2,0-0.3,0-0.5,0c-13.2,0-26.4,0-39.6,0
		c-1.2,0-1.6-0.4-1.6-1.6C0,37,0,19.3,0,1.6C0,0.9,0.2,0.3,0.8,0"/>
	<path class="st0" d="M54,53.4c-1.1,0-2.2-0.2-3.1-0.5c-0.9-0.3-1.8-0.9-2.6-1.6c-0.2-0.2-0.4-0.4-0.5-0.7c-0.1-0.2-0.2-0.5-0.2-0.7
		c0-0.4,0.1-0.8,0.4-1.1c0.3-0.3,0.6-0.5,1-0.5c0.3,0,0.6,0.1,0.8,0.3c0.6,0.5,1.2,1,1.8,1.2c0.6,0.3,1.4,0.4,2.3,0.4
		c0.6,0,1.2-0.1,1.7-0.3c0.5-0.2,0.9-0.5,1.2-0.8c0.3-0.3,0.5-0.7,0.5-1.2c0-0.5-0.1-1-0.4-1.3c-0.3-0.4-0.7-0.7-1.3-0.9
		c-0.6-0.3-1.4-0.5-2.3-0.6c-0.9-0.1-1.6-0.4-2.3-0.6c-0.7-0.3-1.2-0.7-1.7-1.1c-0.4-0.4-0.8-1-1-1.6c-0.2-0.6-0.3-1.3-0.3-2
		c0-1.1,0.3-2.1,0.8-2.9C49.3,36,50,35.4,51,35c0.9-0.4,2-0.6,3.1-0.6c1.1,0,2,0.2,2.9,0.5c0.9,0.3,1.6,0.8,2.2,1.3
		c0.5,0.4,0.7,0.9,0.7,1.4c0,0.4-0.1,0.7-0.4,1.1c-0.3,0.3-0.6,0.5-1,0.5c-0.2,0-0.5-0.1-0.7-0.2c-0.3-0.2-0.6-0.5-1-0.7
		c-0.4-0.2-0.9-0.4-1.4-0.6c-0.5-0.1-0.9-0.2-1.4-0.2c-0.7,0-1.3,0.1-1.8,0.3c-0.5,0.2-0.8,0.5-1.1,0.8s-0.4,0.7-0.4,1.2
		c0,0.5,0.1,1,0.4,1.3c0.3,0.3,0.7,0.6,1.2,0.8c0.5,0.2,1.2,0.4,1.9,0.5c1,0.2,1.8,0.4,2.6,0.7c0.7,0.3,1.4,0.6,1.8,1
		c0.5,0.4,0.9,0.9,1.1,1.6c0.2,0.6,0.4,1.4,0.4,2.3c0,1.1-0.3,2.1-0.9,3c-0.6,0.8-1.4,1.5-2.3,1.9C56.2,53.2,55.1,53.4,54,53.4"/>
	<path class="st0" d="M74.2,34.6c0.4,0,0.8,0.2,1,0.5c0.3,0.3,0.4,0.7,0.4,1.1v9.6c0,1.5-0.3,2.8-0.9,3.9c-0.6,1.1-1.4,2-2.4,2.6
		c-1,0.6-2.2,1-3.5,1c-1.3,0-2.5-0.3-3.5-1c-1-0.6-1.8-1.5-2.4-2.6s-0.9-2.4-0.9-3.9v-9.6c0-0.5,0.1-0.8,0.4-1.1
		c0.3-0.3,0.7-0.5,1.1-0.5c0.4,0,0.7,0.2,1,0.5c0.3,0.3,0.5,0.7,0.5,1.1v9.6c0,0.9,0.2,1.6,0.5,2.3c0.3,0.6,0.8,1.1,1.4,1.5
		c0.6,0.4,1.2,0.5,1.8,0.5c0.7,0,1.3-0.2,2-0.5c0.6-0.4,1.1-0.9,1.5-1.5c0.4-0.6,0.6-1.4,0.6-2.3v-9.6c0-0.5,0.1-0.8,0.4-1.1
		C73.5,34.7,73.8,34.6,74.2,34.6"/>
	<path class="st0" d="M85.4,50.1c1,0,1.9-0.3,2.5-0.9c0.7-0.6,1.1-1.3,1.4-2.3c0.3-0.9,0.5-2,0.5-3.1c0-0.8-0.1-1.6-0.3-2.4
		c-0.2-0.7-0.4-1.4-0.8-2c-0.4-0.6-0.8-1-1.4-1.4c-0.6-0.3-1.2-0.5-2-0.5h-4.3l0.2-0.2v13l-0.1-0.3H85.4z M85.6,34.6
		c1.2,0,2.2,0.2,3.1,0.7c0.9,0.5,1.7,1.1,2.3,2c0.6,0.9,1.1,1.8,1.4,3c0.3,1.1,0.5,2.3,0.5,3.6c0,1.7-0.3,3.3-0.9,4.7
		s-1.4,2.5-2.5,3.3c-1.1,0.8-2.4,1.2-4,1.2h-5.8c-0.4,0-0.8-0.2-1.1-0.5c-0.3-0.3-0.4-0.7-0.4-1.2V36.2c0-0.5,0.1-0.8,0.4-1.2
		c0.3-0.3,0.6-0.5,1.1-0.5H85.6z"/>
	<path class="st0" d="M107.3,43.9c0-1.2-0.2-2.3-0.7-3.2c-0.4-1-1-1.7-1.8-2.3s-1.7-0.8-2.7-0.8c-1,0-1.9,0.3-2.7,0.8
		s-1.4,1.3-1.8,2.3c-0.4,1-0.6,2-0.6,3.2c0,1.2,0.2,2.3,0.6,3.2c0.4,1,1,1.7,1.8,2.3c0.8,0.6,1.6,0.8,2.7,0.8c1,0,1.9-0.3,2.7-0.8
		c0.8-0.6,1.4-1.3,1.8-2.3C107.1,46.1,107.3,45,107.3,43.9 M110.5,43.9c0,1.3-0.2,2.6-0.6,3.7c-0.4,1.1-1,2.2-1.7,3
		c-0.7,0.9-1.6,1.6-2.6,2c-1,0.5-2.1,0.7-3.3,0.7c-1.2,0-2.3-0.2-3.3-0.7c-1-0.5-1.9-1.2-2.6-2c-0.7-0.9-1.3-1.9-1.7-3
		c-0.4-1.1-0.6-2.4-0.6-3.7s0.2-2.6,0.6-3.7c0.4-1.1,1-2.2,1.7-3c0.7-0.9,1.6-1.6,2.6-2c1-0.5,2.1-0.7,3.3-0.7
		c1.2,0,2.3,0.2,3.3,0.7c1,0.5,1.9,1.2,2.6,2c0.7,0.9,1.3,1.9,1.7,3C110.3,41.3,110.5,42.5,110.5,43.9"/>
	<path class="st0" d="M124.1,53.1c-0.5,0-0.8-0.2-1.1-0.6l-5.6-8l2.2-2.5l5.8,8.4c0.2,0.3,0.3,0.7,0.3,1.1c0,0.5-0.2,0.9-0.5,1.2
		C124.9,53,124.5,53.1,124.1,53.1 M124.4,34.5c0.4,0,0.7,0.2,1,0.5c0.3,0.3,0.4,0.7,0.4,1c0,0.4-0.1,0.7-0.4,1L115,47.7l-0.1-3.8
		l8.2-8.8C123.5,34.7,123.9,34.5,124.4,34.5 M113.8,53.1c-0.5,0-0.8-0.2-1.1-0.5c-0.3-0.3-0.4-0.7-0.4-1.2V36.2
		c0-0.5,0.1-0.8,0.4-1.2c0.3-0.3,0.7-0.5,1.1-0.5c0.5,0,0.8,0.2,1.1,0.5c0.3,0.3,0.4,0.7,0.4,1.2v15.3c0,0.5-0.1,0.8-0.4,1.2
		C114.7,53,114.3,53.1,113.8,53.1"/>
	<path class="st0" d="M139.1,34.6c0.4,0,0.8,0.2,1,0.5c0.3,0.3,0.4,0.7,0.4,1.1v9.6c0,1.5-0.3,2.8-0.9,3.9c-0.6,1.1-1.4,2-2.4,2.6
		c-1,0.6-2.2,1-3.5,1c-1.3,0-2.5-0.3-3.5-1c-1-0.6-1.8-1.5-2.4-2.6c-0.6-1.1-0.9-2.4-0.9-3.9v-9.6c0-0.5,0.1-0.8,0.4-1.1
		c0.3-0.3,0.7-0.5,1.1-0.5c0.4,0,0.7,0.2,1,0.5c0.3,0.3,0.5,0.7,0.5,1.1v9.6c0,0.9,0.2,1.6,0.5,2.3c0.3,0.6,0.8,1.1,1.4,1.5
		c0.6,0.4,1.2,0.5,1.8,0.5c0.7,0,1.3-0.2,1.9-0.5c0.6-0.4,1.1-0.9,1.5-1.5c0.4-0.6,0.6-1.4,0.6-2.3v-9.6c0-0.5,0.1-0.8,0.4-1.1
		C138.3,34.7,138.6,34.6,139.1,34.6"/>
	<path class="st0" d="M156.4,45H152l0.2-0.2v5.6l-0.2-0.3h4.6c0.7,0,1.3-0.2,1.8-0.6c0.4-0.4,0.7-1.1,0.7-1.9c0-0.8-0.1-1.4-0.4-1.7
		c-0.3-0.4-0.6-0.6-1-0.7C157.1,45,156.7,45,156.4,45 M156.2,37.7h-4.3l0.3-0.4v4.8l-0.3-0.2h4.4c0.5,0,0.9-0.2,1.3-0.5
		c0.4-0.3,0.6-0.8,0.6-1.5c0-0.8-0.2-1.3-0.5-1.7C157.2,37.9,156.8,37.7,156.2,37.7 M156.6,34.6c1.6,0,2.7,0.4,3.5,1.2
		c0.8,0.8,1.1,2,1.1,3.5c0,0.8-0.2,1.6-0.6,2.2c-0.4,0.6-0.9,1.1-1.7,1.5c-0.7,0.3-1.6,0.5-2.7,0.5l0.1-1.2c0.5,0,1.1,0.1,1.7,0.2
		c0.6,0.1,1.3,0.4,1.9,0.8c0.6,0.4,1.1,0.9,1.5,1.6c0.4,0.7,0.6,1.5,0.6,2.6c0,1.2-0.2,2.1-0.5,2.9c-0.3,0.7-0.8,1.3-1.4,1.7
		c-0.6,0.4-1.2,0.7-1.8,0.8c-0.6,0.1-1.3,0.2-1.9,0.2h-6.1c-0.4,0-0.8-0.2-1.1-0.5c-0.3-0.3-0.4-0.7-0.4-1.2V36.2
		c0-0.5,0.1-0.8,0.4-1.2c0.3-0.3,0.6-0.5,1.1-0.5H156.6z"/>
	<path class="st0" d="M165.8,49l1.3-3h6.6l0.5,3H165.8z M170.3,38.8L165,52.2c-0.1,0.3-0.3,0.6-0.5,0.8c-0.2,0.2-0.5,0.3-0.8,0.3
		c-0.4,0-0.8-0.1-1-0.4c-0.2-0.3-0.3-0.6-0.3-1c0-0.2,0-0.3,0.1-0.5l6.1-15.8c0.1-0.4,0.3-0.6,0.6-0.8c0.3-0.2,0.6-0.3,0.9-0.2
		c0.3,0,0.6,0.1,0.8,0.3c0.3,0.2,0.4,0.4,0.5,0.8l6,15.5c0.1,0.2,0.1,0.4,0.1,0.6c0,0.5-0.1,0.9-0.4,1.1c-0.3,0.3-0.6,0.4-0.9,0.4
		c-0.3,0-0.6-0.1-0.8-0.3c-0.2-0.2-0.4-0.5-0.5-0.8l-5.2-13.2L170.3,38.8z"/>
	<path class="st0" d="M184.1,53.4c-1.1,0-2.2-0.2-3.1-0.5c-0.9-0.3-1.8-0.9-2.6-1.6c-0.2-0.2-0.4-0.4-0.5-0.7
		c-0.1-0.2-0.2-0.5-0.2-0.7c0-0.4,0.1-0.8,0.4-1.1c0.3-0.3,0.6-0.5,1-0.5c0.3,0,0.6,0.1,0.8,0.3c0.6,0.5,1.2,1,1.8,1.2
		c0.6,0.3,1.4,0.4,2.3,0.4c0.6,0,1.2-0.1,1.7-0.3c0.5-0.2,0.9-0.5,1.2-0.8c0.3-0.3,0.5-0.7,0.5-1.2c0-0.5-0.1-1-0.4-1.3
		c-0.3-0.4-0.7-0.7-1.3-0.9c-0.6-0.3-1.4-0.5-2.3-0.6c-0.9-0.1-1.7-0.4-2.3-0.6c-0.7-0.3-1.2-0.7-1.7-1.1c-0.4-0.4-0.8-1-1-1.6
		c-0.2-0.6-0.3-1.3-0.3-2c0-1.1,0.3-2.1,0.8-2.9c0.5-0.8,1.3-1.4,2.2-1.8c0.9-0.4,2-0.6,3.1-0.6c1.1,0,2,0.2,2.9,0.5
		c0.9,0.3,1.6,0.8,2.2,1.3c0.5,0.4,0.7,0.9,0.7,1.4c0,0.4-0.1,0.7-0.4,1.1c-0.3,0.3-0.6,0.5-1,0.5c-0.2,0-0.5-0.1-0.7-0.2
		c-0.3-0.2-0.6-0.5-1-0.7c-0.4-0.2-0.9-0.4-1.4-0.6c-0.5-0.1-0.9-0.2-1.4-0.2c-0.7,0-1.3,0.1-1.8,0.3c-0.5,0.2-0.8,0.5-1.1,0.8
		c-0.2,0.3-0.4,0.7-0.4,1.2c0,0.5,0.1,1,0.4,1.3c0.3,0.3,0.7,0.6,1.2,0.8c0.5,0.2,1.2,0.4,1.9,0.5c1,0.2,1.8,0.4,2.6,0.7
		c0.7,0.3,1.4,0.6,1.8,1c0.5,0.4,0.9,0.9,1.1,1.6c0.2,0.6,0.4,1.4,0.4,2.3c0,1.1-0.3,2.1-0.9,3c-0.6,0.8-1.4,1.5-2.3,1.9
		C186.2,53.2,185.2,53.4,184.1,53.4"/>
	<path class="st0" d="M193.7,34.6h8.2c0.4,0,0.8,0.1,1.1,0.4s0.4,0.7,0.4,1.1c0,0.4-0.1,0.8-0.4,1.1c-0.3,0.3-0.6,0.4-1.1,0.4H195
		l0.2-0.4v5.2l-0.2-0.2h5.7c0.4,0,0.8,0.1,1.1,0.4s0.4,0.7,0.4,1.1c0,0.4-0.1,0.8-0.4,1.1c-0.3,0.3-0.6,0.4-1.1,0.4h-5.6l0.1-0.2
		v5.3l-0.2-0.2h6.8c0.4,0,0.8,0.2,1.1,0.5c0.3,0.3,0.4,0.7,0.4,1.1c0,0.4-0.1,0.8-0.4,1.1c-0.3,0.3-0.6,0.4-1.1,0.4h-8.2
		c-0.4,0-0.8-0.2-1.1-0.5c-0.3-0.3-0.4-0.7-0.4-1.2V36.2c0-0.5,0.1-0.8,0.4-1.2C192.9,34.8,193.3,34.6,193.7,34.6"/>
	<path class="st0" d="M10.7,15.8c-0.3,0-0.5-0.1-0.7-0.3c-0.2-0.2-0.3-0.4-0.3-0.7V6.7L9.9,7L8.7,7.8C8.5,7.9,8.3,7.9,8.1,7.9
		c-0.3,0-0.5-0.1-0.7-0.3S7.2,7.2,7.2,7c0-0.4,0.2-0.6,0.5-0.8l2.4-1.5c0.2-0.1,0.4-0.1,0.7-0.1c0.3,0,0.5,0.1,0.7,0.3
		c0.2,0.2,0.3,0.4,0.3,0.7v9.3c0,0.3-0.1,0.5-0.3,0.7C11.3,15.7,11,15.8,10.7,15.8"/>
	<path class="st0" d="M25.7,31.4c0.1,0,0.2,0,0.3,0c0.1,0,0.2,0.1,0.4,0.2c0.2,0.1,0.4,0.3,0.7,0.4c0.3,0.1,0.5,0.2,0.9,0.2
		c0.3,0,0.6-0.1,0.9-0.2c0.3-0.2,0.5-0.4,0.7-0.7c0.2-0.3,0.3-0.7,0.3-1.1c0-0.4-0.1-0.7-0.2-1c-0.2-0.3-0.4-0.5-0.7-0.6
		c-0.3-0.1-0.6-0.2-0.9-0.2c-0.2,0-0.4,0-0.6,0.1c-0.2,0-0.3,0.1-0.5,0.1c-0.1,0-0.3,0.1-0.5,0.1c-0.2,0-0.4-0.1-0.6-0.3
		c-0.1-0.2-0.2-0.4-0.2-0.6c0-0.2,0-0.3,0.1-0.4c0.1-0.1,0.1-0.2,0.3-0.4l2.8-3.1l0.4,0.4h-4c-0.3,0-0.5-0.1-0.6-0.3
		c-0.2-0.2-0.3-0.4-0.3-0.6c0-0.2,0.1-0.5,0.3-0.6c0.2-0.2,0.4-0.3,0.6-0.3h4.9c0.3,0,0.6,0.1,0.8,0.3c0.2,0.2,0.2,0.4,0.2,0.7
		c0,0.1,0,0.3-0.1,0.4S31.1,24,31,24.1l-2.9,3.1l-0.4-0.5c0.1-0.1,0.3-0.1,0.5-0.1c0.2,0,0.4-0.1,0.5-0.1c0.6,0,1.2,0.2,1.7,0.5
		c0.5,0.3,0.8,0.8,1.1,1.3c0.3,0.5,0.4,1.1,0.4,1.7c0,0.8-0.2,1.5-0.5,2.1c-0.4,0.6-0.9,1-1.5,1.3c-0.6,0.3-1.4,0.5-2.3,0.5
		c-0.4,0-0.8,0-1.2-0.1c-0.4-0.1-0.7-0.2-1-0.4c-0.2-0.1-0.4-0.3-0.5-0.4c-0.1-0.2-0.1-0.3-0.1-0.4c0-0.2,0.1-0.5,0.3-0.7
		C25.2,31.5,25.4,31.4,25.7,31.4"/>
</g>
</svg>
