<?xml version="1.0" encoding="utf-8"?>
<!-- Generator: Adobe Illustrator 21.1.0, SVG Export Plug-In . SVG Version: 6.00 Build 0)  -->
<svg version="1.1" id="Layer_1" xmlns="http://www.w3.org/2000/svg" xmlns:xlink="http://www.w3.org/1999/xlink" x="0px" y="0px"
	 viewBox="0 0 15.3 15.3" style="enable-background:new 0 0 15.3 15.3;" xml:space="preserve">
<style type="text/css">
	.st0{fill:#FFFFFF;}
</style>
<g>
	<path class="st0" d="M0.9,14.5l0.8-3l2.3,2.3L0.9,14.5z M12.1,5.8l-7.6,7.6l-1.1-1.1l7.6-7.6c0.1-0.1,0.1-0.4,0-0.5
		c-0.1-0.1-0.4-0.1-0.5,0L3,11.8l-1.1-1.1l7.6-7.6c0.1-0.1,0.1-0.4,0-0.5C9.4,2.5,9.1,2.5,9,2.7l-7.8,7.8l0,0l0,0l0,0l0,0
		c0,0,0,0,0,0v0L0,14.9c0,0.2,0.1,0.4,0.3,0.4c0.1,0,0.1,0,0.2,0l4.2-1.1h0l0,0l0,0l0,0l0,0l0,0l7.8-7.8c0.1-0.1,0.1-0.4,0-0.5
		C12.5,5.7,12.3,5.7,12.1,5.8 M14.5,3.5l-1,1l-2.6-2.6l1-1c0.1-0.1,0.4-0.1,0.5,0L14.5,3C14.6,3.1,14.6,3.3,14.5,3.5L14.5,3.5
		L14.5,3.5z M15,2.4l-2.1-2.1c-0.4-0.4-1.1-0.4-1.5,0l-1.2,1.2C10,1.7,10,1.9,10.1,2c0,0,0,0,0,0l3.1,3.1c0.1,0.1,0.4,0.1,0.5,0l0,0
		L15,4C15.4,3.5,15.4,2.9,15,2.4"/>
</g>
</svg>
